<?xml version="1.0" encoding="UTF-8" standalone="no"?>
<!DOCTYPE svg PUBLIC "-//W3C//DTD SVG 1.1//EN" "http://www.w3.org/Graphics/SVG/1.1/DTD/svg11.dtd">
<svg xmlns="http://www.w3.org/2000/svg" version="1.1" viewBox="0.00 0.00 311.00 68.00">
<g stroke-width="2.00" fill="none" stroke-linecap="butt">
<path stroke="#2f2d4d" vector-effect="non-scaling-stroke" d="
  M 44.90 0.00
  Q 44.73 4.61 46.09 9.05
  Q 46.25 9.58 46.79 9.71
  Q 48.18 10.06 49.63 9.75
  A 1.73 1.73 0.0 0 0 51.00 7.92
  L 50.34 0.00"
/>
<path stroke="#2f2d4d" vector-effect="non-scaling-stroke" d="
  M 54.43 0.00
  C 50.85 1.33 51.56 4.04 52.13 7.07
  A 0.68 0.68 0.0 0 0 53.19 7.50
  L 62.93 0.66
  Q 63.27 0.42 62.88 0.31
  L 61.87 0.00"
/>
<path stroke="#2f2d4d" vector-effect="non-scaling-stroke" d="
  M 216.84 0.00
  L 219.03 9.15
  Q 219.31 10.32 220.07 9.39
  L 220.65 8.68
  Q 221.34 7.84 220.90 6.85
  L 220.29 5.46
  Q 220.02 4.86 220.55 4.48
  L 224.53 1.62
  A 1.34 1.33 50.4 0 1 226.27 1.79
  Q 227.13 2.71 228.28 3.25
  Q 228.79 3.50 229.21 3.11
  L 229.67 2.69
  Q 230.06 2.33 229.80 1.86
  Q 229.01 0.47 227.21 0.00"
/>
<path stroke="#2f2d4d" vector-effect="non-scaling-stroke" d="
  M 231.65 0.00
  L 231.26 0.28
  Q 230.60 0.75 231.42 0.81
  Q 233.75 0.96 232.08 0.00"
/>
<path stroke="#89889b" vector-effect="non-scaling-stroke" d="
  M 201.95 11.63
  L 200.46 11.64"
/>
<path stroke="#2f2d4d" vector-effect="non-scaling-stroke" d="
  M 200.46 11.64
  L 199.96 11.62
  A 1.25 1.23 -21.6 0 1 199.11 11.26
  Q 195.57 7.74 190.72 11.63"
/>
<path stroke="#89889b" vector-effect="non-scaling-stroke" d="
  M 190.72 11.63
  L 10.29 11.63
  A 0.29 0.29 0.0 0 0 10.00 11.92
  L 10.00 17.78
  Q 10.00 18.03 10.25 18.03
  L 189.14 18.04"
/>
<path stroke="#2f2d4d" vector-effect="non-scaling-stroke" d="
  M 189.14 18.04
  C 189.28 21.89 192.48 24.92 196.43 24.71
  Q 202.31 24.39 203.96 18.04"
/>
<path stroke="#89889b" vector-effect="non-scaling-stroke" d="
  M 203.96 18.04
  L 300.74 18.03
  A 0.26 0.26 0.0 0 0 301.00 17.77
  L 301.00 11.93
  Q 301.00 11.62 300.70 11.62
  L 215.01 11.61"
/>
<path stroke="#2f2d4d" vector-effect="non-scaling-stroke" d="
  M 215.01 11.61
  C 217.99 6.52 212.69 1.24 207.87 0.66
  A 1.42 1.39 -57.1 0 0 206.99 0.86
  C 205.79 1.60 204.61 1.69 203.62 2.55
  Q 199.67 6.02 201.95 11.63"
/>
<path stroke="#a4a4b1" vector-effect="non-scaling-stroke" d="
  M 215.01 11.61
  L 213.63 11.48"
/>
<path stroke="#2f2d4d" vector-effect="non-scaling-stroke" d="
  M 213.63 11.48
  Q 214.05 5.22 208.60 2.99
  Q 208.20 2.83 207.79 2.97
  C 202.60 4.74 203.21 6.85 204.45 11.48"
/>
<path stroke="#a4a4b1" vector-effect="non-scaling-stroke" d="
  M 204.45 11.48
  L 201.95 11.63"
/>
<path stroke="#89889b" vector-effect="non-scaling-stroke" d="
  M 213.63 11.48
  L 204.45 11.48"
/>
<path stroke="#a4a4b1" vector-effect="non-scaling-stroke" d="
  M 203.96 18.04
  L 201.89 18.08"
/>
<path stroke="#89889b" vector-effect="non-scaling-stroke" d="
  M 201.89 18.08
  L 190.96 18.01"
/>
<path stroke="#a4a4b1" vector-effect="non-scaling-stroke" d="
  M 190.96 18.01
  Q 190.19 18.17 189.14 18.04"
/>
<path stroke="#2f2d4d" vector-effect="non-scaling-stroke" d="
  M 190.96 18.01
  Q 193.61 24.04 197.99 22.43
  Q 200.62 21.46 201.89 18.08"
/>
<path stroke="#a4a4b1" vector-effect="non-scaling-stroke" d="
  M 200.46 11.64
  L 190.72 11.63"
/>
<path stroke="#2f2d4d" vector-effect="non-scaling-stroke" d="
  M 187.2201 32.7528
  A 7.66 7.15 56.3 0 0 188.9185 22.4129
  A 7.66 7.15 56.3 0 0 178.7199 20.0072
  A 7.66 7.15 56.3 0 0 177.0215 30.3471
  A 7.66 7.15 56.3 0 0 187.2201 32.7528"
/>
<path stroke="#89889b" vector-effect="non-scaling-stroke" d="
  M 101.04 39.51
  L 104.14 25.03
  Q 104.25 24.50 103.71 24.50
  L 94.08 24.50
  Q 93.64 24.50 93.55 24.93
  L 86.39 58.73
  Q 86.28 59.25 86.81 59.25
  L 96.29 59.25
  Q 96.85 59.25 96.96 58.71
  L 100.05 44.23
  A 3.46 3.44 0.7 0 1 102.80 41.56
  L 103.08 41.51
  Q 105.48 41.07 104.98 43.45
  L 101.78 58.72
  Q 101.67 59.25 102.21 59.25
  L 111.72 59.25
  Q 112.20 59.25 112.30 58.79
  Q 113.95 51.15 115.42 43.48
  C 116.74 36.63 109.66 35.77 105.00 37.66
  C 103.79 38.14 102.75 39.12 101.59 39.88
  Q 100.86 40.36 101.04 39.51"
/>
<path stroke="#89889b" vector-effect="non-scaling-stroke" d="
  M 249.48 24.87
  A 0.31 0.31 0.0 0 0 249.18 24.50
  L 239.20 24.50
  A 0.31 0.31 0.0 0 0 238.90 24.75
  L 231.67 58.88
  A 0.31 0.31 0.0 0 0 231.97 59.25
  L 241.91 59.25
  A 0.31 0.31 0.0 0 0 242.21 59.00
  L 249.48 24.87"
/>
<path stroke="#89889b" vector-effect="non-scaling-stroke" d="
  M 17.83 30.25
  A 0.33 0.33 0.0 0 1 18.16 30.65
  L 12.14 58.85
  A 0.33 0.33 0.0 0 0 12.47 59.25
  L 22.99 59.25
  A 0.33 0.33 0.0 0 0 23.32 58.99
  L 29.35 30.51
  A 0.33 0.33 0.0 0 1 29.68 30.25
  L 37.51 30.25
  A 0.33 0.33 0.0 0 0 37.83 29.99
  L 38.55 26.90
  A 0.33 0.33 0.0 0 0 38.22 26.50
  L 11.18 26.50
  A 0.33 0.33 0.0 0 0 10.86 26.75
  L 10.09 29.84
  A 0.33 0.33 0.0 0 0 10.41 30.25
  L 17.83 30.25"
/>
<path stroke="#89889b" vector-effect="non-scaling-stroke" d="
  M 132.26 45.98
  L 136.36 58.76
  Q 136.52 59.25 137.03 59.25
  L 147.47 59.25
  Q 148.08 59.25 147.86 58.69
  L 142.33 44.47
  A 0.92 0.91 -21.7 0 1 142.84 43.29
  Q 148.81 40.95 149.27 34.50
  C 149.90 25.92 140.84 26.60 134.90 26.50
  Q 129.75 26.42 124.61 26.54
  Q 124.13 26.55 124.03 27.01
  L 117.26 58.70
  Q 117.14 59.25 117.70 59.25
  L 127.78 59.25
  Q 128.34 59.25 128.45 58.71
  L 131.15 46.04
  Q 131.60 43.92 132.26 45.98"
/>
<path stroke="#89889b" vector-effect="non-scaling-stroke" d="
  M 167.03 36.57
  C 158.19 36.20 149.80 39.15 149.47 49.51
  Q 149.26 56.09 155.25 58.49
  C 159.98 60.38 167.82 60.10 172.52 57.63
  Q 173.06 57.35 173.20 56.75
  L 174.13 52.89
  Q 174.41 51.75 173.24 51.75
  L 167.26 51.75
  Q 165.95 51.75 165.40 52.93
  Q 164.35 55.17 162.06 56.07
  A 1.38 1.38 0.0 0 1 160.20 55.04
  Q 159.65 52.16 160.19 49.22
  Q 160.28 48.75 160.76 48.75
  L 174.27 48.75
  Q 174.82 48.75 175.09 48.28
  Q 177.41 44.35 175.72 39.99"
/>
<path stroke="#2f2d4d" vector-effect="non-scaling-stroke" d="
  M 175.72 39.99
  Q 178.14 39.03 179.61 37.55
  A 1.24 1.24 0.0 0 0 179.77 35.98
  L 179.60 35.73
  A 0.73 0.73 0.0 0 0 178.50 35.59
  Q 176.22 37.65 174.27 38.32"
/>
<path stroke="#89889b" vector-effect="non-scaling-stroke" d="
  M 174.27 38.32
  L 169.01 36.65"
/>
<path stroke="#2f2d4d" vector-effect="non-scaling-stroke" d="
  M 169.01 36.65
  L 169.47 36.04
  Q 169.84 35.55 169.49 35.06
  L 165.53 29.47
  A 0.18 0.18 0.0 0 0 165.25 29.46
  L 163.90 30.99
  Q 163.70 31.22 163.88 31.46
  L 167.18 35.89
  Q 167.35 36.12 167.21 36.37
  Q 167.14 36.49 167.03 36.57"
/>
<path stroke="#a4a4b1" vector-effect="non-scaling-stroke" d="
  M 169.01 36.65
  Q 168.09 36.86 167.03 36.57"
/>
<path stroke="#a4a4b1" vector-effect="non-scaling-stroke" d="
  M 175.72 39.99
  L 174.27 38.32"
/>
<path stroke="#89889b" vector-effect="non-scaling-stroke" d="
  M 43.17 48.75
  L 56.78 48.75
  Q 57.37 48.75 57.66 48.23
  C 59.41 45.16 59.67 39.20 55.76 37.78
  C 46.98 34.59 33.65 36.39 32.26 48.00
  C 31.30 56.00 35.86 59.15 42.99 59.61
  C 46.95 59.86 51.69 59.66 55.12 57.41
  Q 55.59 57.10 55.73 56.56
  L 56.59 53.06
  Q 56.91 51.75 55.56 51.75
  L 49.94 51.75
  Q 48.59 51.75 47.94 52.92
  Q 46.86 54.88 44.95 56.02
  A 1.65 1.65 0.0 0 1 42.46 54.57
  L 42.57 49.33
  Q 42.59 48.75 43.17 48.75"
/>
<path stroke="#89889b" vector-effect="non-scaling-stroke" d="
  M 72.55 56.06
  A 1.45 1.44 82.0 0 1 70.87 54.79
  C 70.55 51.96 71.61 39.32 76.49 40.11
  A 1.49 1.49 0.0 0 1 77.69 41.21
  Q 78.18 43.17 77.81 45.20
  Q 77.66 46.00 78.47 46.00
  L 84.04 46.00
  Q 84.84 46.00 85.01 45.22
  L 86.14 40.12
  Q 86.25 39.62 85.90 39.26
  C 82.81 36.03 76.27 36.24 71.91 36.87
  C 65.00 37.88 59.28 43.75 60.47 51.09
  C 62.21 61.85 74.62 60.41 82.14 58.32
  Q 82.79 58.14 82.93 57.48
  L 84.19 51.27
  Q 84.30 50.75 83.77 50.75
  L 77.44 50.75
  Q 76.93 50.75 76.77 51.22
  C 75.96 53.61 75.18 55.60 72.55 56.06"
/>
<path stroke="#89889b" vector-effect="non-scaling-stroke" d="
  M 192.75 40.45
  Q 193.59 41.58 193.26 42.91
  A 0.48 0.48 0.0 0 0 193.72 43.50
  L 199.46 43.51
  Q 199.93 43.51 200.04 43.05
  L 201.03 38.77
  A 0.81 0.81 0.0 0 0 200.45 37.81
  C 195.11 36.36 185.65 35.21 181.24 39.48
  Q 178.24 42.38 179.25 46.18
  C 180.49 50.85 185.95 50.27 189.12 52.60
  Q 189.75 53.06 189.65 53.84
  C 189.13 57.58 184.13 56.90 184.53 53.32
  A 0.51 0.51 0.0 0 0 184.02 52.75
  L 178.24 52.75
  Q 177.54 52.75 177.39 53.44
  L 176.55 57.48
  Q 176.45 57.96 176.92 58.11
  C 182.56 59.92 199.45 61.93 200.26 52.73
  C 200.80 46.58 195.00 45.87 190.62 44.79
  A 2.03 2.03 0.0 0 1 189.16 42.24
  Q 189.79 40.17 191.87 40.04
  A 1.03 1.03 0.0 0 1 192.75 40.45"
/>
<path stroke="#89889b" vector-effect="non-scaling-stroke" d="
  M 225.07 37.35
  C 218.33 35.57 207.54 36.41 204.35 43.58
  C 202.46 47.85 201.98 55.40 207.00 57.97
  C 211.02 60.03 216.07 60.04 220.74 58.90
  C 228.03 57.13 231.65 50.88 230.27 43.50
  C 229.67 40.30 228.21 38.18 225.07 37.35"
/>
<path stroke="#89889b" vector-effect="non-scaling-stroke" d="
  M 285.17 48.75
  L 298.77 48.75
  Q 299.37 48.75 299.66 48.23
  C 301.15 45.61 301.64 41.38 299.42 38.97
  C 296.09 35.37 284.99 36.50 281.68 37.87
  Q 275.26 40.53 274.30 47.75
  C 273.21 55.85 277.75 59.15 284.99 59.61
  C 288.97 59.86 293.73 59.66 297.19 57.38
  Q 297.66 57.06 297.79 56.52
  L 298.76 52.31
  Q 298.90 51.75 298.31 51.75
  L 291.00 51.75
  Q 290.47 51.75 290.26 52.24
  Q 289.24 54.57 287.07 55.98
  A 1.69 1.69 0.0 0 1 284.46 54.53
  L 284.57 49.33
  Q 284.59 48.75 285.17 48.75"
/>
<path stroke="#89889b" vector-effect="non-scaling-stroke" d="
  M 262.73 51.38
  A 0.31 0.31 0.0 0 1 262.14 51.28
  L 260.24 37.27
  A 0.31 0.31 0.0 0 0 259.93 37.00
  L 249.57 37.00
  A 0.31 0.31 0.0 0 0 249.27 37.36
  L 252.73 58.99
  A 0.31 0.31 0.0 0 0 253.03 59.25
  L 263.41 59.25
  A 0.31 0.31 0.0 0 0 263.69 59.08
  L 275.12 37.45
  A 0.31 0.31 0.0 0 0 274.85 37.00
  L 270.06 37.00
  A 0.31 0.31 0.0 0 0 269.78 37.17
  L 262.73 51.38"
/>
<path stroke="#2f2d4d" vector-effect="non-scaling-stroke" d="
  M 218.83 0.00
  Q 219.03 1.24 219.51 2.18
  Q 219.75 2.65 220.18 2.35
  L 223.59 0.00"
/>
<path stroke="#2f2d4d" vector-effect="non-scaling-stroke" d="
  M 186.1189 30.8771
  A 5.49 4.74 55.0 0 0 186.8528 23.6612
  A 5.49 4.74 55.0 0 0 179.8211 21.8829
  A 5.49 4.74 55.0 0 0 179.0872 29.0988
  A 5.49 4.74 55.0 0 0 186.1189 30.8771"
/>
<path stroke="#89889b" vector-effect="non-scaling-stroke" d="
  M 132.65 41.40
  C 138.61 42.82 140.11 35.19 139.12 31.18
  A 1.08 1.07 -85.3 0 0 138.52 30.47
  Q 136.94 29.77 135.21 30.04
  Q 134.62 30.13 134.49 30.71
  L 132.23 40.74
  Q 132.11 41.27 132.65 41.40"
/>
<path stroke="#89889b" vector-effect="non-scaling-stroke" d="
  M 43.57 46.49
  L 48.95 46.50
  Q 49.17 46.50 49.23 46.28
  Q 49.80 43.86 49.56 41.30
  A 1.62 1.62 0.0 0 0 46.95 40.17
  Q 43.97 42.49 43.44 46.34
  Q 43.42 46.49 43.57 46.49"
/>
<path stroke="#89889b" vector-effect="non-scaling-stroke" d="
  M 161.05 46.49
  L 166.45 46.49
  Q 166.68 46.49 166.73 46.27
  Q 167.32 43.84 167.07 41.31
  A 1.63 1.63 0.0 0 0 164.45 40.19
  Q 161.47 42.51 160.92 46.35
  Q 160.90 46.49 161.05 46.49"
/>
<path stroke="#89889b" vector-effect="non-scaling-stroke" d="
  M 214.9062 56.3114
  A 8.38 2.91 102.5 0 0 219.5610 48.7598
  A 8.38 2.91 102.5 0 0 218.5338 39.9486
  A 8.38 2.91 102.5 0 0 213.8790 47.5002
  A 8.38 2.91 102.5 0 0 214.9062 56.3114"
/>
<path stroke="#89889b" vector-effect="non-scaling-stroke" d="
  M 285.57 46.49
  L 290.95 46.50
  Q 291.18 46.50 291.23 46.28
  Q 291.81 43.86 291.55 41.30
  A 1.62 1.62 0.0 0 0 288.94 40.18
  Q 285.98 42.50 285.44 46.34
  Q 285.42 46.49 285.57 46.49"
/>
</g>
<path fill="#131137" d="
  M 0.00 0.00
  L 44.90 0.00
  Q 44.73 4.61 46.09 9.05
  Q 46.25 9.58 46.79 9.71
  Q 48.18 10.06 49.63 9.75
  A 1.73 1.73 0.0 0 0 51.00 7.92
  L 50.34 0.00
  L 54.43 0.00
  C 50.85 1.33 51.56 4.04 52.13 7.07
  A 0.68 0.68 0.0 0 0 53.19 7.50
  L 62.93 0.66
  Q 63.27 0.42 62.88 0.31
  L 61.87 0.00
  L 216.84 0.00
  L 219.03 9.15
  Q 219.31 10.32 220.07 9.39
  L 220.65 8.68
  Q 221.34 7.84 220.90 6.85
  L 220.29 5.46
  Q 220.02 4.86 220.55 4.48
  L 224.53 1.62
  A 1.34 1.33 50.4 0 1 226.27 1.79
  Q 227.13 2.71 228.28 3.25
  Q 228.79 3.50 229.21 3.11
  L 229.67 2.69
  Q 230.06 2.33 229.80 1.86
  Q 229.01 0.47 227.21 0.00
  L 231.65 0.00
  L 231.26 0.28
  Q 230.60 0.75 231.42 0.81
  Q 233.75 0.96 232.08 0.00
  L 311.00 0.00
  L 311.00 68.00
  L 0.00 68.00
  L 0.00 0.00
  Z
  M 201.95 11.63
  L 200.46 11.64
  L 199.96 11.62
  A 1.25 1.23 -21.6 0 1 199.11 11.26
  Q 195.57 7.74 190.72 11.63
  L 10.29 11.63
  A 0.29 0.29 0.0 0 0 10.00 11.92
  L 10.00 17.78
  Q 10.00 18.03 10.25 18.03
  L 189.14 18.04
  C 189.28 21.89 192.48 24.92 196.43 24.71
  Q 202.31 24.39 203.96 18.04
  L 300.74 18.03
  A 0.26 0.26 0.0 0 0 301.00 17.77
  L 301.00 11.93
  Q 301.00 11.62 300.70 11.62
  L 215.01 11.61
  C 217.99 6.52 212.69 1.24 207.87 0.66
  A 1.42 1.39 -57.1 0 0 206.99 0.86
  C 205.79 1.60 204.61 1.69 203.62 2.55
  Q 199.67 6.02 201.95 11.63
  Z
  M 187.2201 32.7528
  A 7.66 7.15 56.3 0 0 188.9185 22.4129
  A 7.66 7.15 56.3 0 0 178.7199 20.0072
  A 7.66 7.15 56.3 0 0 177.0215 30.3471
  A 7.66 7.15 56.3 0 0 187.2201 32.7528
  Z
  M 101.04 39.51
  L 104.14 25.03
  Q 104.25 24.50 103.71 24.50
  L 94.08 24.50
  Q 93.64 24.50 93.55 24.93
  L 86.39 58.73
  Q 86.28 59.25 86.81 59.25
  L 96.29 59.25
  Q 96.85 59.25 96.96 58.71
  L 100.05 44.23
  A 3.46 3.44 0.7 0 1 102.80 41.56
  L 103.08 41.51
  Q 105.48 41.07 104.98 43.45
  L 101.78 58.72
  Q 101.67 59.25 102.21 59.25
  L 111.72 59.25
  Q 112.20 59.25 112.30 58.79
  Q 113.95 51.15 115.42 43.48
  C 116.74 36.63 109.66 35.77 105.00 37.66
  C 103.79 38.14 102.75 39.12 101.59 39.88
  Q 100.86 40.36 101.04 39.51
  Z
  M 249.48 24.87
  A 0.31 0.31 0.0 0 0 249.18 24.50
  L 239.20 24.50
  A 0.31 0.31 0.0 0 0 238.90 24.75
  L 231.67 58.88
  A 0.31 0.31 0.0 0 0 231.97 59.25
  L 241.91 59.25
  A 0.31 0.31 0.0 0 0 242.21 59.00
  L 249.48 24.87
  Z
  M 17.83 30.25
  A 0.33 0.33 0.0 0 1 18.16 30.65
  L 12.14 58.85
  A 0.33 0.33 0.0 0 0 12.47 59.25
  L 22.99 59.25
  A 0.33 0.33 0.0 0 0 23.32 58.99
  L 29.35 30.51
  A 0.33 0.33 0.0 0 1 29.68 30.25
  L 37.51 30.25
  A 0.33 0.33 0.0 0 0 37.83 29.99
  L 38.55 26.90
  A 0.33 0.33 0.0 0 0 38.22 26.50
  L 11.18 26.50
  A 0.33 0.33 0.0 0 0 10.86 26.75
  L 10.09 29.84
  A 0.33 0.33 0.0 0 0 10.41 30.25
  L 17.83 30.25
  Z
  M 132.26 45.98
  L 136.36 58.76
  Q 136.52 59.25 137.03 59.25
  L 147.47 59.25
  Q 148.08 59.25 147.86 58.69
  L 142.33 44.47
  A 0.92 0.91 -21.7 0 1 142.84 43.29
  Q 148.81 40.95 149.27 34.50
  C 149.90 25.92 140.84 26.60 134.90 26.50
  Q 129.75 26.42 124.61 26.54
  Q 124.13 26.55 124.03 27.01
  L 117.26 58.70
  Q 117.14 59.25 117.70 59.25
  L 127.78 59.25
  Q 128.34 59.25 128.45 58.71
  L 131.15 46.04
  Q 131.60 43.92 132.26 45.98
  Z
  M 167.03 36.57
  C 158.19 36.20 149.80 39.15 149.47 49.51
  Q 149.26 56.09 155.25 58.49
  C 159.98 60.38 167.82 60.10 172.52 57.63
  Q 173.06 57.35 173.20 56.75
  L 174.13 52.89
  Q 174.41 51.75 173.24 51.75
  L 167.26 51.75
  Q 165.95 51.75 165.40 52.93
  Q 164.35 55.17 162.06 56.07
  A 1.38 1.38 0.0 0 1 160.20 55.04
  Q 159.65 52.16 160.19 49.22
  Q 160.28 48.75 160.76 48.75
  L 174.27 48.75
  Q 174.82 48.75 175.09 48.28
  Q 177.41 44.35 175.72 39.99
  Q 178.14 39.03 179.61 37.55
  A 1.24 1.24 0.0 0 0 179.77 35.98
  L 179.60 35.73
  A 0.73 0.73 0.0 0 0 178.50 35.59
  Q 176.22 37.65 174.27 38.32
  L 169.01 36.65
  L 169.47 36.04
  Q 169.84 35.55 169.49 35.06
  L 165.53 29.47
  A 0.18 0.18 0.0 0 0 165.25 29.46
  L 163.90 30.99
  Q 163.70 31.22 163.88 31.46
  L 167.18 35.89
  Q 167.35 36.12 167.21 36.37
  Q 167.14 36.49 167.03 36.57
  Z
  M 43.17 48.75
  L 56.78 48.75
  Q 57.37 48.75 57.66 48.23
  C 59.41 45.16 59.67 39.20 55.76 37.78
  C 46.98 34.59 33.65 36.39 32.26 48.00
  C 31.30 56.00 35.86 59.15 42.99 59.61
  C 46.95 59.86 51.69 59.66 55.12 57.41
  Q 55.59 57.10 55.73 56.56
  L 56.59 53.06
  Q 56.91 51.75 55.56 51.75
  L 49.94 51.75
  Q 48.59 51.75 47.94 52.92
  Q 46.86 54.88 44.95 56.02
  A 1.65 1.65 0.0 0 1 42.46 54.57
  L 42.57 49.33
  Q 42.59 48.75 43.17 48.75
  Z
  M 72.55 56.06
  A 1.45 1.44 82.0 0 1 70.87 54.79
  C 70.55 51.96 71.61 39.32 76.49 40.11
  A 1.49 1.49 0.0 0 1 77.69 41.21
  Q 78.18 43.17 77.81 45.20
  Q 77.66 46.00 78.47 46.00
  L 84.04 46.00
  Q 84.84 46.00 85.01 45.22
  L 86.14 40.12
  Q 86.25 39.62 85.90 39.26
  C 82.81 36.03 76.27 36.24 71.91 36.87
  C 65.00 37.88 59.28 43.75 60.47 51.09
  C 62.21 61.85 74.62 60.41 82.14 58.32
  Q 82.79 58.14 82.93 57.48
  L 84.19 51.27
  Q 84.30 50.75 83.77 50.75
  L 77.44 50.75
  Q 76.93 50.75 76.77 51.22
  C 75.96 53.61 75.18 55.60 72.55 56.06
  Z
  M 192.75 40.45
  Q 193.59 41.58 193.26 42.91
  A 0.48 0.48 0.0 0 0 193.72 43.50
  L 199.46 43.51
  Q 199.93 43.51 200.04 43.05
  L 201.03 38.77
  A 0.81 0.81 0.0 0 0 200.45 37.81
  C 195.11 36.36 185.65 35.21 181.24 39.48
  Q 178.24 42.38 179.25 46.18
  C 180.49 50.85 185.95 50.27 189.12 52.60
  Q 189.75 53.06 189.65 53.84
  C 189.13 57.58 184.13 56.90 184.53 53.32
  A 0.51 0.51 0.0 0 0 184.02 52.75
  L 178.24 52.75
  Q 177.54 52.75 177.39 53.44
  L 176.55 57.48
  Q 176.45 57.96 176.92 58.11
  C 182.56 59.92 199.45 61.93 200.26 52.73
  C 200.80 46.58 195.00 45.87 190.62 44.79
  A 2.03 2.03 0.0 0 1 189.16 42.24
  Q 189.79 40.17 191.87 40.04
  A 1.03 1.03 0.0 0 1 192.75 40.45
  Z
  M 225.07 37.35
  C 218.33 35.57 207.54 36.41 204.35 43.58
  C 202.46 47.85 201.98 55.40 207.00 57.97
  C 211.02 60.03 216.07 60.04 220.74 58.90
  C 228.03 57.13 231.65 50.88 230.27 43.50
  C 229.67 40.30 228.21 38.18 225.07 37.35
  Z
  M 285.17 48.75
  L 298.77 48.75
  Q 299.37 48.75 299.66 48.23
  C 301.15 45.61 301.64 41.38 299.42 38.97
  C 296.09 35.37 284.99 36.50 281.68 37.87
  Q 275.26 40.53 274.30 47.75
  C 273.21 55.85 277.75 59.15 284.99 59.61
  C 288.97 59.86 293.73 59.66 297.19 57.38
  Q 297.66 57.06 297.79 56.52
  L 298.76 52.31
  Q 298.90 51.75 298.31 51.75
  L 291.00 51.75
  Q 290.47 51.75 290.26 52.24
  Q 289.24 54.57 287.07 55.98
  A 1.69 1.69 0.0 0 1 284.46 54.53
  L 284.57 49.33
  Q 284.59 48.75 285.17 48.75
  Z
  M 262.73 51.38
  A 0.31 0.31 0.0 0 1 262.14 51.28
  L 260.24 37.27
  A 0.31 0.31 0.0 0 0 259.93 37.00
  L 249.57 37.00
  A 0.31 0.31 0.0 0 0 249.27 37.36
  L 252.73 58.99
  A 0.31 0.31 0.0 0 0 253.03 59.25
  L 263.41 59.25
  A 0.31 0.31 0.0 0 0 263.69 59.08
  L 275.12 37.45
  A 0.31 0.31 0.0 0 0 274.85 37.00
  L 270.06 37.00
  A 0.31 0.31 0.0 0 0 269.78 37.17
  L 262.73 51.38
  Z"
/>
<path fill="#4a4963" d="
  M 44.90 0.00
  L 50.34 0.00
  L 51.00 7.92
  A 1.73 1.73 0.0 0 1 49.63 9.75
  Q 48.18 10.06 46.79 9.71
  Q 46.25 9.58 46.09 9.05
  Q 44.73 4.61 44.90 0.00
  Z"
/>
<path fill="#4a4963" d="
  M 54.43 0.00
  L 61.87 0.00
  L 62.88 0.31
  Q 63.27 0.42 62.93 0.66
  L 53.19 7.50
  A 0.68 0.68 0.0 0 1 52.13 7.07
  C 51.56 4.04 50.85 1.33 54.43 0.00
  Z"
/>
<path fill="#4a4963" d="
  M 216.84 0.00
  L 218.83 0.00
  Q 219.03 1.24 219.51 2.18
  Q 219.75 2.65 220.18 2.35
  L 223.59 0.00
  L 227.21 0.00
  Q 229.01 0.47 229.80 1.86
  Q 230.06 2.33 229.67 2.69
  L 229.21 3.11
  Q 228.79 3.50 228.28 3.25
  Q 227.13 2.71 226.27 1.79
  A 1.34 1.33 50.4 0 0 224.53 1.62
  L 220.55 4.48
  Q 220.02 4.86 220.29 5.46
  L 220.90 6.85
  Q 221.34 7.84 220.65 8.68
  L 220.07 9.39
  Q 219.31 10.32 219.03 9.15
  L 216.84 0.00
  Z"
/>
<path fill="#131137" d="
  M 218.83 0.00
  L 223.59 0.00
  L 220.18 2.35
  Q 219.75 2.65 219.51 2.18
  Q 219.03 1.24 218.83 0.00
  Z"
/>
<path fill="#4a4963" d="
  M 231.65 0.00
  L 232.08 0.00
  Q 233.75 0.96 231.42 0.81
  Q 230.60 0.75 231.26 0.28
  L 231.65 0.00
  Z"
/>
<path fill="#4a4963" d="
  M 215.01 11.61
  L 213.63 11.48
  Q 214.05 5.22 208.60 2.99
  Q 208.20 2.83 207.79 2.97
  C 202.60 4.74 203.21 6.85 204.45 11.48
  L 201.95 11.63
  Q 199.67 6.02 203.62 2.55
  C 204.61 1.69 205.79 1.60 206.99 0.86
  A 1.42 1.39 -57.1 0 1 207.87 0.66
  C 212.69 1.24 217.99 6.52 215.01 11.61
  Z"
/>
<path fill="#131137" d="
  M 213.63 11.48
  L 204.45 11.48
  C 203.21 6.85 202.60 4.74 207.79 2.97
  Q 208.20 2.83 208.60 2.99
  Q 214.05 5.22 213.63 11.48
  Z"
/>
<path fill="#4a4963" d="
  M 200.46 11.64
  L 190.72 11.63
  Q 195.57 7.74 199.11 11.26
  A 1.25 1.23 -21.6 0 0 199.96 11.62
  L 200.46 11.64
  Z"
/>
<path fill="#feffff" d="
  M 190.72 11.63
  L 200.46 11.64
  L 201.95 11.63
  L 204.45 11.48
  L 213.63 11.48
  L 215.01 11.61
  L 300.70 11.62
  Q 301.00 11.62 301.00 11.93
  L 301.00 17.77
  A 0.26 0.26 0.0 0 1 300.74 18.03
  L 203.96 18.04
  L 201.89 18.08
  L 190.96 18.01
  Q 190.19 18.17 189.14 18.04
  L 10.25 18.03
  Q 10.00 18.03 10.00 17.78
  L 10.00 11.92
  A 0.29 0.29 0.0 0 1 10.29 11.63
  L 190.72 11.63
  Z"
/>
<path fill="#4a4963" d="
  M 189.14 18.04
  Q 190.19 18.17 190.96 18.01
  Q 193.61 24.04 197.99 22.43
  Q 200.62 21.46 201.89 18.08
  L 203.96 18.04
  Q 202.31 24.39 196.43 24.71
  C 192.48 24.92 189.28 21.89 189.14 18.04
  Z"
/>
<path fill="#131137" d="
  M 190.96 18.01
  L 201.89 18.08
  Q 200.62 21.46 197.99 22.43
  Q 193.61 24.04 190.96 18.01
  Z"
/>
<path fill="#4a4963" d="
  M 187.2201 32.7528
  A 7.66 7.15 56.3 0 1 177.0215 30.3471
  A 7.66 7.15 56.3 0 1 178.7199 20.0072
  A 7.66 7.15 56.3 0 1 188.9185 22.4129
  A 7.66 7.15 56.3 0 1 187.2201 32.7528
  Z
  M 186.1189 30.8771
  A 5.49 4.74 55.0 0 0 186.8528 23.6612
  A 5.49 4.74 55.0 0 0 179.8211 21.8829
  A 5.49 4.74 55.0 0 0 179.0872 29.0988
  A 5.49 4.74 55.0 0 0 186.1189 30.8771
  Z"
/>
<ellipse fill="#131137" cx="0.00" cy="0.00" transform="translate(182.97,26.38) rotate(55.0)" rx="5.49" ry="4.74"/>
<path fill="#feffff" d="
  M 101.59 39.88
  C 102.75 39.12 103.79 38.14 105.00 37.66
  C 109.66 35.77 116.74 36.63 115.42 43.48
  Q 113.95 51.15 112.30 58.79
  Q 112.20 59.25 111.72 59.25
  L 102.21 59.25
  Q 101.67 59.25 101.78 58.72
  L 104.98 43.45
  Q 105.48 41.07 103.08 41.51
  L 102.80 41.56
  A 3.46 3.44 0.7 0 0 100.05 44.23
  L 96.96 58.71
  Q 96.85 59.25 96.29 59.25
  L 86.81 59.25
  Q 86.28 59.25 86.39 58.73
  L 93.55 24.93
  Q 93.64 24.50 94.08 24.50
  L 103.71 24.50
  Q 104.25 24.50 104.14 25.03
  L 101.04 39.51
  Q 100.86 40.36 101.59 39.88
  Z"
/>
<path fill="#feffff" d="
  M 249.48 24.87
  L 242.21 59.00
  A 0.31 0.31 0.0 0 1 241.91 59.25
  L 231.97 59.25
  A 0.31 0.31 0.0 0 1 231.67 58.88
  L 238.90 24.75
  A 0.31 0.31 0.0 0 1 239.20 24.50
  L 249.18 24.50
  A 0.31 0.31 0.0 0 1 249.48 24.87
  Z"
/>
<path fill="#feffff" d="
  M 17.83 30.25
  L 10.41 30.25
  A 0.33 0.33 0.0 0 1 10.09 29.84
  L 10.86 26.75
  A 0.33 0.33 0.0 0 1 11.18 26.50
  L 38.22 26.50
  A 0.33 0.33 0.0 0 1 38.55 26.90
  L 37.83 29.99
  A 0.33 0.33 0.0 0 1 37.51 30.25
  L 29.68 30.25
  A 0.33 0.33 0.0 0 0 29.35 30.51
  L 23.32 58.99
  A 0.33 0.33 0.0 0 1 22.99 59.25
  L 12.47 59.25
  A 0.33 0.33 0.0 0 1 12.14 58.85
  L 18.16 30.65
  A 0.33 0.33 0.0 0 0 17.83 30.25
  Z"
/>
<path fill="#feffff" d="
  M 132.26 45.98
  Q 131.60 43.92 131.15 46.04
  L 128.45 58.71
  Q 128.34 59.25 127.78 59.25
  L 117.70 59.25
  Q 117.14 59.25 117.26 58.70
  L 124.03 27.01
  Q 124.13 26.55 124.61 26.54
  Q 129.75 26.42 134.90 26.50
  C 140.84 26.60 149.90 25.92 149.27 34.50
  Q 148.81 40.95 142.84 43.29
  A 0.92 0.91 -21.7 0 0 142.33 44.47
  L 147.86 58.69
  Q 148.08 59.25 147.47 59.25
  L 137.03 59.25
  Q 136.52 59.25 136.36 58.76
  L 132.26 45.98
  Z
  M 132.65 41.40
  C 138.61 42.82 140.11 35.19 139.12 31.18
  A 1.08 1.07 -85.3 0 0 138.52 30.47
  Q 136.94 29.77 135.21 30.04
  Q 134.62 30.13 134.49 30.71
  L 132.23 40.74
  Q 132.11 41.27 132.65 41.40
  Z"
/>
<path fill="#4a4963" d="
  M 169.01 36.65
  Q 168.09 36.86 167.03 36.57
  Q 167.14 36.49 167.21 36.37
  Q 167.35 36.12 167.18 35.89
  L 163.88 31.46
  Q 163.70 31.22 163.90 30.99
  L 165.25 29.46
  A 0.18 0.18 0.0 0 1 165.53 29.47
  L 169.49 35.06
  Q 169.84 35.55 169.47 36.04
  L 169.01 36.65
  Z"
/>
<path fill="#131137" d="
  M 139.12 31.18
  C 140.11 35.19 138.61 42.82 132.65 41.40
  Q 132.11 41.27 132.23 40.74
  L 134.49 30.71
  Q 134.62 30.13 135.21 30.04
  Q 136.94 29.77 138.52 30.47
  A 1.08 1.07 -85.3 0 1 139.12 31.18
  Z"
/>
<path fill="#4a4963" d="
  M 175.72 39.99
  L 174.27 38.32
  Q 176.22 37.65 178.50 35.59
  A 0.73 0.73 0.0 0 1 179.60 35.73
  L 179.77 35.98
  A 1.24 1.24 0.0 0 1 179.61 37.55
  Q 178.14 39.03 175.72 39.99
  Z"
/>
<path fill="#feffff" d="
  M 42.57 49.33
  L 42.46 54.57
  A 1.65 1.65 0.0 0 0 44.95 56.02
  Q 46.86 54.88 47.94 52.92
  Q 48.59 51.75 49.94 51.75
  L 55.56 51.75
  Q 56.91 51.75 56.59 53.06
  L 55.73 56.56
  Q 55.59 57.10 55.12 57.41
  C 51.69 59.66 46.95 59.86 42.99 59.61
  C 35.86 59.15 31.30 56.00 32.26 48.00
  C 33.65 36.39 46.98 34.59 55.76 37.78
  C 59.67 39.20 59.41 45.16 57.66 48.23
  Q 57.37 48.75 56.78 48.75
  L 43.17 48.75
  Q 42.59 48.75 42.57 49.33
  Z
  M 43.57 46.49
  L 48.95 46.50
  Q 49.17 46.50 49.23 46.28
  Q 49.80 43.86 49.56 41.30
  A 1.62 1.62 0.0 0 0 46.95 40.17
  Q 43.97 42.49 43.44 46.34
  Q 43.42 46.49 43.57 46.49
  Z"
/>
<path fill="#feffff" d="
  M 72.55 56.06
  C 75.18 55.60 75.96 53.61 76.77 51.22
  Q 76.93 50.75 77.44 50.75
  L 83.77 50.75
  Q 84.30 50.75 84.19 51.27
  L 82.93 57.48
  Q 82.79 58.14 82.14 58.32
  C 74.62 60.41 62.21 61.85 60.47 51.09
  C 59.28 43.75 65.00 37.88 71.91 36.87
  C 76.27 36.24 82.81 36.03 85.90 39.26
  Q 86.25 39.62 86.14 40.12
  L 85.01 45.22
  Q 84.84 46.00 84.04 46.00
  L 78.47 46.00
  Q 77.66 46.00 77.81 45.20
  Q 78.18 43.17 77.69 41.21
  A 1.49 1.49 0.0 0 0 76.49 40.11
  C 71.61 39.32 70.55 51.96 70.87 54.79
  A 1.45 1.44 82.0 0 0 72.55 56.06
  Z"
/>
<path fill="#feffff" d="
  M 167.03 36.57
  Q 168.09 36.86 169.01 36.65
  L 174.27 38.32
  L 175.72 39.99
  Q 177.41 44.35 175.09 48.28
  Q 174.82 48.75 174.27 48.75
  L 160.76 48.75
  Q 160.28 48.75 160.19 49.22
  Q 159.65 52.16 160.20 55.04
  A 1.38 1.38 0.0 0 0 162.06 56.07
  Q 164.35 55.17 165.40 52.93
  Q 165.95 51.75 167.26 51.75
  L 173.24 51.75
  Q 174.41 51.75 174.13 52.89
  L 173.20 56.75
  Q 173.06 57.35 172.52 57.63
  C 167.82 60.10 159.98 60.38 155.25 58.49
  Q 149.26 56.09 149.47 49.51
  C 149.80 39.15 158.19 36.20 167.03 36.57
  Z
  M 161.05 46.49
  L 166.45 46.49
  Q 166.68 46.49 166.73 46.27
  Q 167.32 43.84 167.07 41.31
  A 1.63 1.63 0.0 0 0 164.45 40.19
  Q 161.47 42.51 160.92 46.35
  Q 160.90 46.49 161.05 46.49
  Z"
/>
<path fill="#feffff" d="
  M 191.87 40.04
  Q 189.79 40.17 189.16 42.24
  A 2.03 2.03 0.0 0 0 190.62 44.79
  C 195.00 45.87 200.80 46.58 200.26 52.73
  C 199.45 61.93 182.56 59.92 176.92 58.11
  Q 176.45 57.96 176.55 57.48
  L 177.39 53.44
  Q 177.54 52.75 178.24 52.75
  L 184.02 52.75
  A 0.51 0.51 0.0 0 1 184.53 53.32
  C 184.13 56.90 189.13 57.58 189.65 53.84
  Q 189.75 53.06 189.12 52.60
  C 185.95 50.27 180.49 50.85 179.25 46.18
  Q 178.24 42.38 181.24 39.48
  C 185.65 35.21 195.11 36.36 200.45 37.81
  A 0.81 0.81 0.0 0 1 201.03 38.77
  L 200.04 43.05
  Q 199.93 43.51 199.46 43.51
  L 193.72 43.50
  A 0.48 0.48 0.0 0 1 193.26 42.91
  Q 193.59 41.58 192.75 40.45
  A 1.03 1.03 0.0 0 0 191.87 40.04
  Z"
/>
<path fill="#feffff" d="
  M 225.07 37.35
  C 228.21 38.18 229.67 40.30 230.27 43.50
  C 231.65 50.88 228.03 57.13 220.74 58.90
  C 216.07 60.04 211.02 60.03 207.00 57.97
  C 201.98 55.40 202.46 47.85 204.35 43.58
  C 207.54 36.41 218.33 35.57 225.07 37.35
  Z
  M 214.9062 56.3114
  A 8.38 2.91 102.5 0 0 219.5610 48.7598
  A 8.38 2.91 102.5 0 0 218.5338 39.9486
  A 8.38 2.91 102.5 0 0 213.8790 47.5002
  A 8.38 2.91 102.5 0 0 214.9062 56.3114
  Z"
/>
<path fill="#feffff" d="
  M 284.57 49.33
  L 284.46 54.53
  A 1.69 1.69 0.0 0 0 287.07 55.98
  Q 289.24 54.57 290.26 52.24
  Q 290.47 51.75 291.00 51.75
  L 298.31 51.75
  Q 298.90 51.75 298.76 52.31
  L 297.79 56.52
  Q 297.66 57.06 297.19 57.38
  C 293.73 59.66 288.97 59.86 284.99 59.61
  C 277.75 59.15 273.21 55.85 274.30 47.75
  Q 275.26 40.53 281.68 37.87
  C 284.99 36.50 296.09 35.37 299.42 38.97
  C 301.64 41.38 301.15 45.61 299.66 48.23
  Q 299.37 48.75 298.77 48.75
  L 285.17 48.75
  Q 284.59 48.75 284.57 49.33
  Z
  M 285.57 46.49
  L 290.95 46.50
  Q 291.18 46.50 291.23 46.28
  Q 291.81 43.86 291.55 41.30
  A 1.62 1.62 0.0 0 0 288.94 40.18
  Q 285.98 42.50 285.44 46.34
  Q 285.42 46.49 285.57 46.49
  Z"
/>
<path fill="#feffff" d="
  M 262.73 51.38
  L 269.78 37.17
  A 0.31 0.31 0.0 0 1 270.06 37.00
  L 274.85 37.00
  A 0.31 0.31 0.0 0 1 275.12 37.45
  L 263.69 59.08
  A 0.31 0.31 0.0 0 1 263.41 59.25
  L 253.03 59.25
  A 0.31 0.31 0.0 0 1 252.73 58.99
  L 249.27 37.36
  A 0.31 0.31 0.0 0 1 249.57 37.00
  L 259.93 37.00
  A 0.31 0.31 0.0 0 1 260.24 37.27
  L 262.14 51.28
  A 0.31 0.31 0.0 0 0 262.73 51.38
  Z"
/>
<path fill="#131137" d="
  M 43.44 46.34
  Q 43.97 42.49 46.95 40.17
  A 1.62 1.62 0.0 0 1 49.56 41.30
  Q 49.80 43.86 49.23 46.28
  Q 49.17 46.50 48.95 46.50
  L 43.57 46.49
  Q 43.42 46.49 43.44 46.34
  Z"
/>
<path fill="#131137" d="
  M 160.92 46.35
  Q 161.47 42.51 164.45 40.19
  A 1.63 1.63 0.0 0 1 167.07 41.31
  Q 167.32 43.84 166.73 46.27
  Q 166.68 46.49 166.45 46.49
  L 161.05 46.49
  Q 160.90 46.49 160.92 46.35
  Z"
/>
<ellipse fill="#131137" cx="0.00" cy="0.00" transform="translate(216.72,48.13) rotate(102.5)" rx="8.38" ry="2.91"/>
<path fill="#131137" d="
  M 285.44 46.34
  Q 285.98 42.50 288.94 40.18
  A 1.62 1.62 0.0 0 1 291.55 41.30
  Q 291.81 43.86 291.23 46.28
  Q 291.18 46.50 290.95 46.50
  L 285.57 46.49
  Q 285.42 46.49 285.44 46.34
  Z"
/>
</svg>
